# MagicaVoxel @ Ephtracy

# group
o 

# material
mtllib Bus-3.mtl
usemtl palette

# normals
vn -1 0 0
vn 1 0 0
vn 0 0 1
vn 0 0 -1
vn 0 -1 0
vn 0 1 0

# texcoords
vt 0.720703 0.5
vt 0.724609 0.5
vt 0.794922 0.5
vt 0.900391 0.5
vt 0.904297 0.5

# verts
v -5.7 0 -8.6
v -5.7 0 -10.4
v -5.7 25.5 -8.6
v -5.7 25.5 -10.4
v -4.2 6.4 -8.2
v -4.2 6.4 -8.6
v -4.2 6.8 -7.9
v -4.2 6.8 -8.2
v -4.2 22.6 -7.9
v -4.2 22.6 -8.6
v -3.7 7.2 -10.4
v -3.7 7.2 -11
v -3.7 22.5 -10.4
v -3.7 22.5 -11
v -2.8 16.8 -9.3
v -2.8 16.8 -9.7
v -2.8 16.9 -9.3
v -2.8 16.9 -9.7
v -0.6 16.9 -9.2
v -0.6 16.9 -9.8
v -0.6 18.8 -9.1
v -0.6 18.8 -9.2
v -0.6 19.6 -9.1
v -0.6 19.6 -9.2
v -0.6 21.5 -9.2
v -0.6 21.5 -9.3
v -0.6 21.5 -9.7
v -0.6 21.5 -9.8
v 16.9 8 -7.9
v 16.9 8 -9.3
v 16.9 8 -9.7
v 16.9 8 -11
v 16.9 16.1 -9.2
v 16.9 16.1 -9.3
v 16.9 16.1 -9.7
v 16.9 16.1 -9.8
v 16.9 16.9 -9.2
v 16.9 16.9 -9.3
v 16.9 16.9 -9.7
v 16.9 16.9 -9.8
v 16.9 21.5 -7.9
v 16.9 21.5 -9.3
v 16.9 21.5 -9.7
v 16.9 21.5 -11
v 17.1 7.8 -9.3
v 17.1 7.8 -9.7
v 17.1 21.8 -9.3
v 17.1 21.8 -9.7
v -3 7.8 -9.3
v -3 7.8 -9.7
v -3 21.8 -9.3
v -3 21.8 -9.7
v -2.8 8 -7.9
v -2.8 8 -9.3
v -2.8 8 -9.7
v -2.8 8 -11
v -2.8 16.1 -9.2
v -2.8 16.1 -9.3
v -2.8 16.1 -9.7
v -2.8 16.1 -9.8
v -2.8 16.9 -9.2
v -2.8 16.9 -9.3
v -2.8 16.9 -9.7
v -2.8 16.9 -9.8
v -2.8 21.5 -7.9
v -2.8 21.5 -9.3
v -2.8 21.5 -9.7
v -2.8 21.5 -11
v -0.3 18.8 -9.1
v -0.3 18.8 -9.2
v -0.3 19.6 -9.1
v -0.3 19.6 -9.2
v -0.2 16.9 -9.2
v -0.2 16.9 -9.8
v -0.2 21.5 -9.2
v -0.2 21.5 -9.3
v -0.2 21.5 -9.7
v -0.2 21.5 -9.8
v 16.9 16.8 -9.3
v 16.9 16.8 -9.7
v 16.9 16.9 -9.3
v 16.9 16.9 -9.7
v 17.8 7.2 -10.4
v 17.8 7.2 -11
v 17.8 22.5 -10.4
v 17.8 22.5 -11
v 18 6.4 -8.2
v 18 6.4 -8.6
v 18 6.8 -7.9
v 18 6.8 -8.2
v 18 22.6 -7.9
v 18 22.6 -8.6
v 19.9 0 -8.6
v 19.9 0 -10.4
v 19.9 25.5 -8.6
v 19.9 25.5 -10.4
v -4.2 6.8 -7.9
v -4.2 22.6 -7.9
v -2.8 8 -7.9
v -2.8 21.5 -7.9
v 16.9 8 -7.9
v 16.9 21.5 -7.9
v 18 6.8 -7.9
v 18 22.6 -7.9
v -4.2 6.4 -8.2
v -4.2 6.8 -8.2
v 18 6.4 -8.2
v 18 6.8 -8.2
v -5.7 0 -8.6
v -5.7 25.5 -8.6
v -4.2 6.4 -8.6
v -4.2 22.6 -8.6
v 18 6.4 -8.6
v 18 22.6 -8.6
v 19.9 0 -8.6
v 19.9 25.5 -8.6
v -0.6 18.8 -9.1
v -0.6 19.6 -9.1
v -0.3 18.8 -9.1
v -0.3 19.6 -9.1
v -2.8 16.1 -9.2
v -2.8 16.9 -9.2
v -0.6 16.9 -9.2
v -0.6 18.8 -9.2
v -0.6 19.6 -9.2
v -0.6 21.5 -9.2
v -0.3 18.8 -9.2
v -0.3 19.6 -9.2
v -0.2 16.9 -9.2
v -0.2 21.5 -9.2
v 16.9 16.1 -9.2
v 16.9 16.9 -9.2
v -3 7.8 -9.7
v -3 21.8 -9.7
v -2.8 8 -9.7
v -2.8 16.1 -9.7
v -2.8 16.8 -9.7
v -2.8 16.9 -9.7
v -2.8 21.5 -9.7
v -0.6 21.5 -9.7
v -0.2 21.5 -9.7
v 16.9 8 -9.7
v 16.9 16.1 -9.7
v 16.9 16.8 -9.7
v 16.9 16.9 -9.7
v 16.9 21.5 -9.7
v 17.1 7.8 -9.7
v 17.1 21.8 -9.7
v -3 7.8 -9.3
v -3 21.8 -9.3
v -2.8 8 -9.3
v -2.8 16.1 -9.3
v -2.8 16.8 -9.3
v -2.8 16.9 -9.3
v -2.8 21.5 -9.3
v -0.6 21.5 -9.3
v -0.2 21.5 -9.3
v 16.9 8 -9.3
v 16.9 16.1 -9.3
v 16.9 16.8 -9.3
v 16.9 16.9 -9.3
v 16.9 21.5 -9.3
v 17.1 7.8 -9.3
v 17.1 21.8 -9.3
v -2.8 16.1 -9.8
v -2.8 16.9 -9.8
v -0.6 16.9 -9.8
v -0.6 21.5 -9.8
v -0.2 16.9 -9.8
v -0.2 21.5 -9.8
v 16.9 16.1 -9.8
v 16.9 16.9 -9.8
v -5.7 0 -10.4
v -5.7 25.5 -10.4
v -3.7 7.2 -10.4
v -3.7 22.5 -10.4
v 17.8 7.2 -10.4
v 17.8 22.5 -10.4
v 19.9 0 -10.4
v 19.9 25.5 -10.4
v -3.7 7.2 -11
v -3.7 22.5 -11
v -2.8 8 -11
v -2.8 21.5 -11
v 16.9 8 -11
v 16.9 21.5 -11
v 17.8 7.2 -11
v 17.8 22.5 -11
v -5.7 0 -8.6
v 19.9 0 -8.6
v -5.7 0 -10.4
v 19.9 0 -10.4
v -4.2 6.4 -8.2
v 18 6.4 -8.2
v -4.2 6.4 -8.6
v 18 6.4 -8.6
v -4.2 6.8 -7.9
v 18 6.8 -7.9
v -4.2 6.8 -8.2
v 18 6.8 -8.2
v -3.7 7.2 -10.4
v 17.8 7.2 -10.4
v -3.7 7.2 -11
v 17.8 7.2 -11
v -2.8 16.1 -9.2
v 16.9 16.1 -9.2
v -2.8 16.1 -9.3
v 16.9 16.1 -9.3
v -2.8 16.1 -9.7
v 16.9 16.1 -9.7
v -2.8 16.1 -9.8
v 16.9 16.1 -9.8
v -2.8 16.8 -9.3
v 16.9 16.8 -9.3
v -2.8 16.8 -9.7
v 16.9 16.8 -9.7
v -0.6 18.8 -9.1
v -0.3 18.8 -9.1
v -0.6 18.8 -9.2
v -0.3 18.8 -9.2
v -2.8 21.5 -7.9
v 16.9 21.5 -7.9
v -0.6 21.5 -9.2
v -0.2 21.5 -9.2
v -2.8 21.5 -9.3
v -0.6 21.5 -9.3
v -0.2 21.5 -9.3
v 16.9 21.5 -9.3
v -2.8 21.5 -9.7
v -0.6 21.5 -9.7
v -0.2 21.5 -9.7
v 16.9 21.5 -9.7
v -0.6 21.5 -9.8
v -0.2 21.5 -9.8
v -2.8 21.5 -11
v 16.9 21.5 -11
v -3 21.8 -9.3
v 17.1 21.8 -9.3
v -3 21.8 -9.7
v 17.1 21.8 -9.7
v -3 7.8 -9.3
v 17.1 7.8 -9.3
v -3 7.8 -9.7
v 17.1 7.8 -9.7
v -2.8 8 -7.9
v 16.9 8 -7.9
v -2.8 8 -9.3
v 16.9 8 -9.3
v -2.8 8 -9.7
v 16.9 8 -9.7
v -2.8 8 -11
v 16.9 8 -11
v -2.8 16.9 -9.2
v -0.6 16.9 -9.2
v -0.2 16.9 -9.2
v 16.9 16.9 -9.2
v -2.8 16.9 -9.3
v 16.9 16.9 -9.3
v -2.8 16.9 -9.7
v 16.9 16.9 -9.7
v -2.8 16.9 -9.8
v -0.6 16.9 -9.8
v -0.2 16.9 -9.8
v 16.9 16.9 -9.8
v -0.6 19.6 -9.1
v -0.3 19.6 -9.1
v -0.6 19.6 -9.2
v -0.3 19.6 -9.2
v -0.6 21.5 -9.3
v -0.2 21.5 -9.3
v -0.6 21.5 -9.7
v -0.2 21.5 -9.7
v -3.7 22.5 -10.4
v 17.8 22.5 -10.4
v -3.7 22.5 -11
v 17.8 22.5 -11
v -4.2 22.6 -7.9
v 18 22.6 -7.9
v -4.2 22.6 -8.6
v 18 22.6 -8.6
v -5.7 25.5 -8.6
v 19.9 25.5 -8.6
v -5.7 25.5 -10.4
v 19.9 25.5 -10.4

# faces
f 3/1/1 2/1/1 1/1/1
f 4/1/1 2/1/1 3/1/1
f 8/2/1 6/2/1 5/2/1
f 9/2/1 8/2/1 7/2/1
f 10/2/1 6/2/1 8/2/1
f 10/2/1 8/2/1 9/2/1
f 13/2/1 12/2/1 11/2/1
f 14/2/1 12/2/1 13/2/1
f 17/4/1 16/4/1 15/4/1
f 18/4/1 16/4/1 17/4/1
f 22/4/1 20/4/1 19/4/1
f 23/5/1 22/5/1 21/5/1
f 24/4/1 20/4/1 22/4/1
f 24/5/1 22/5/1 23/5/1
f 25/4/1 20/4/1 24/4/1
f 26/4/1 20/4/1 25/4/1
f 27/4/1 20/4/1 26/4/1
f 28/4/1 20/4/1 27/4/1
f 33/2/1 30/2/1 29/2/1
f 34/2/1 30/2/1 33/2/1
f 35/2/1 32/2/1 31/2/1
f 36/2/1 32/2/1 35/2/1
f 37/2/1 33/2/1 29/2/1
f 40/2/1 32/2/1 36/2/1
f 41/2/1 38/2/1 37/2/1
f 41/2/1 37/2/1 29/2/1
f 42/2/1 38/2/1 41/2/1
f 43/2/1 40/2/1 39/2/1
f 44/2/1 32/2/1 40/2/1
f 44/2/1 40/2/1 43/2/1
f 47/3/1 46/3/1 45/3/1
f 48/3/1 46/3/1 47/3/1
f 49/3/2 50/3/2 51/3/2
f 51/3/2 50/3/2 52/3/2
f 53/2/2 54/2/2 57/2/2
f 57/2/2 54/2/2 58/2/2
f 55/2/2 56/2/2 59/2/2
f 59/2/2 56/2/2 60/2/2
f 53/2/2 57/2/2 61/2/2
f 60/2/2 56/2/2 64/2/2
f 61/2/2 62/2/2 65/2/2
f 53/2/2 61/2/2 65/2/2
f 65/2/2 62/2/2 66/2/2
f 63/2/2 64/2/2 67/2/2
f 64/2/2 56/2/2 68/2/2
f 67/2/2 64/2/2 68/2/2
f 69/5/2 70/5/2 71/5/2
f 71/5/2 70/5/2 72/5/2
f 73/4/2 74/4/2 75/4/2
f 75/4/2 74/4/2 76/4/2
f 76/4/2 74/4/2 77/4/2
f 77/4/2 74/4/2 78/4/2
f 79/4/2 80/4/2 81/4/2
f 81/4/2 80/4/2 82/4/2
f 83/2/2 84/2/2 85/2/2
f 85/2/2 84/2/2 86/2/2
f 87/2/2 88/2/2 90/2/2
f 89/2/2 90/2/2 91/2/2
f 90/2/2 88/2/2 92/2/2
f 91/2/2 90/2/2 92/2/2
f 93/1/2 94/1/2 95/1/2
f 95/1/2 94/1/2 96/1/2
f 99/2/3 98/2/3 97/2/3
f 100/2/3 98/2/3 99/2/3
f 101/2/3 99/2/3 97/2/3
f 102/2/3 98/2/3 100/2/3
f 103/2/3 101/2/3 97/2/3
f 103/2/3 102/2/3 101/2/3
f 104/2/3 98/2/3 102/2/3
f 104/2/3 102/2/3 103/2/3
f 107/2/3 106/2/3 105/2/3
f 108/2/3 106/2/3 107/2/3
f 111/1/3 110/1/3 109/1/3
f 112/1/3 110/1/3 111/1/3
f 113/1/3 111/1/3 109/1/3
f 114/1/3 110/1/3 112/1/3
f 115/1/3 113/1/3 109/1/3
f 115/1/3 114/1/3 113/1/3
f 116/1/3 110/1/3 114/1/3
f 116/1/3 114/1/3 115/1/3
f 119/5/3 118/5/3 117/5/3
f 120/5/3 118/5/3 119/5/3
f 123/4/3 122/4/3 121/4/3
f 127/4/3 124/4/3 123/4/3
f 128/4/3 126/4/3 125/4/3
f 129/4/3 123/4/3 121/4/3
f 129/4/3 128/4/3 127/4/3
f 129/4/3 127/4/3 123/4/3
f 130/4/3 126/4/3 128/4/3
f 130/4/3 128/4/3 129/4/3
f 131/4/3 129/4/3 121/4/3
f 132/4/3 129/4/3 131/4/3
f 135/2/3 134/2/3 133/2/3
f 136/2/3 134/2/3 135/2/3
f 137/2/3 134/2/3 136/2/3
f 138/2/3 134/2/3 137/2/3
f 139/2/3 134/2/3 138/2/3
f 140/2/3 134/2/3 139/2/3
f 141/2/3 134/2/3 140/2/3
f 142/2/3 135/2/3 133/2/3
f 143/4/3 137/4/3 136/4/3
f 144/4/3 137/4/3 143/4/3
f 146/2/3 134/2/3 141/2/3
f 147/2/3 145/2/3 144/2/3
f 147/2/3 146/2/3 145/2/3
f 147/2/3 142/2/3 133/2/3
f 147/2/3 143/2/3 142/2/3
f 147/2/3 144/2/3 143/2/3
f 148/2/3 134/2/3 146/2/3
f 148/2/3 146/2/3 147/2/3
f 149/2/4 150/2/4 151/2/4
f 151/2/4 150/2/4 152/2/4
f 152/2/4 150/2/4 153/2/4
f 153/2/4 150/2/4 154/2/4
f 154/2/4 150/2/4 155/2/4
f 155/2/4 150/2/4 156/2/4
f 156/2/4 150/2/4 157/2/4
f 149/2/4 151/2/4 158/2/4
f 152/4/4 153/4/4 159/4/4
f 159/4/4 153/4/4 160/4/4
f 157/2/4 150/2/4 162/2/4
f 160/2/4 161/2/4 163/2/4
f 161/2/4 162/2/4 163/2/4
f 149/2/4 158/2/4 163/2/4
f 158/2/4 159/2/4 163/2/4
f 159/2/4 160/2/4 163/2/4
f 162/2/4 150/2/4 164/2/4
f 163/2/4 162/2/4 164/2/4
f 165/4/4 166/4/4 167/4/4
f 165/4/4 167/4/4 169/4/4
f 167/4/4 168/4/4 169/4/4
f 169/4/4 168/4/4 170/4/4
f 165/4/4 169/4/4 171/4/4
f 171/4/4 169/4/4 172/4/4
f 173/1/4 174/1/4 175/1/4
f 175/1/4 174/1/4 176/1/4
f 173/1/4 175/1/4 177/1/4
f 176/1/4 174/1/4 178/1/4
f 173/1/4 177/1/4 179/1/4
f 177/1/4 178/1/4 179/1/4
f 178/1/4 174/1/4 180/1/4
f 179/1/4 178/1/4 180/1/4
f 181/2/4 182/2/4 183/2/4
f 183/2/4 182/2/4 184/2/4
f 181/2/4 183/2/4 185/2/4
f 184/2/4 182/2/4 186/2/4
f 181/2/4 185/2/4 187/2/4
f 185/2/4 186/2/4 187/2/4
f 186/2/4 182/2/4 188/2/4
f 187/2/4 186/2/4 188/2/4
f 191/1/5 190/1/5 189/1/5
f 192/1/5 190/1/5 191/1/5
f 195/2/5 194/2/5 193/2/5
f 196/2/5 194/2/5 195/2/5
f 199/2/5 198/2/5 197/2/5
f 200/2/5 198/2/5 199/2/5
f 203/2/5 202/2/5 201/2/5
f 204/2/5 202/2/5 203/2/5
f 207/4/5 206/4/5 205/4/5
f 208/4/5 206/4/5 207/4/5
f 211/4/5 210/4/5 209/4/5
f 212/4/5 210/4/5 211/4/5
f 215/4/5 214/4/5 213/4/5
f 216/4/5 214/4/5 215/4/5
f 219/5/5 218/5/5 217/5/5
f 220/5/5 218/5/5 219/5/5
f 223/2/5 222/2/5 221/2/5
f 224/2/5 222/2/5 223/2/5
f 225/2/5 223/2/5 221/2/5
f 226/2/5 223/2/5 225/2/5
f 227/2/5 222/2/5 224/2/5
f 228/2/5 222/2/5 227/2/5
f 233/2/5 230/2/5 229/2/5
f 234/2/5 232/2/5 231/2/5
f 235/2/5 233/2/5 229/2/5
f 235/2/5 234/2/5 233/2/5
f 236/2/5 232/2/5 234/2/5
f 236/2/5 234/2/5 235/2/5
f 239/3/5 238/3/5 237/3/5
f 240/3/5 238/3/5 239/3/5
f 241/3/6 242/3/6 243/3/6
f 243/3/6 242/3/6 244/3/6
f 245/2/6 246/2/6 247/2/6
f 247/2/6 246/2/6 248/2/6
f 249/2/6 250/2/6 251/2/6
f 251/2/6 250/2/6 252/2/6
f 253/4/6 254/4/6 257/4/6
f 255/4/6 256/4/6 258/4/6
f 257/4/6 254/4/6 259/4/6
f 255/4/6 258/4/6 260/4/6
f 259/4/6 254/4/6 261/4/6
f 261/4/6 254/4/6 262/4/6
f 255/4/6 260/4/6 263/4/6
f 263/4/6 260/4/6 264/4/6
f 265/5/6 266/5/6 267/5/6
f 267/5/6 266/5/6 268/5/6
f 269/4/6 270/4/6 271/4/6
f 271/4/6 270/4/6 272/4/6
f 273/2/6 274/2/6 275/2/6
f 275/2/6 274/2/6 276/2/6
f 277/2/6 278/2/6 279/2/6
f 279/2/6 278/2/6 280/2/6
f 281/1/6 282/1/6 283/1/6
f 283/1/6 282/1/6 284/1/6
