# MagicaVoxel @ Ephtracy

# group
o 

# material
mtllib Sanki-0.mtl
usemtl palette

# normals
vn -1 0 0
vn 1 0 0
vn 0 0 1
vn 0 0 -1
vn 0 -1 0
vn 0 1 0

# texcoords
vt 0.408203 0.5
vt 0.412109 0.5
vt 0.439453 0.5
vt 0.947266 0.5
vt 0.951172 0.5

# verts
v -5.3 0 8.1
v -5.3 0 0.5
v -5.3 0.1 8
v -5.3 0.1 0.5
v -5.3 0.4 8
v -5.3 0.4 0.5
v -5.3 1.5 8
v -5.3 1.5 0.5
v -5.3 1.6 8.1
v -5.3 1.6 0.5
v 5.5 0 8.1
v 5.5 0 0.5
v 5.5 0.1 8
v 5.5 0.1 0.5
v 5.5 0.8 8
v 5.5 0.8 0.5
v 5.5 1.5 8
v 5.5 1.5 0.5
v 5.5 1.6 8.1
v 5.5 1.6 0.5
v -2.5 0 8.1
v -2.5 0 0.5
v -2.5 0.1 8
v -2.5 0.1 0.5
v -2.5 0.8 8
v -2.5 0.8 0.5
v -2.5 1.5 8
v -2.5 1.5 0.5
v -2.5 1.6 8.1
v -2.5 1.6 0.5
v 8.3 0 8.1
v 8.3 0 0.5
v 8.3 0.1 8
v 8.3 0.1 0.600001
v 8.3 0.4 8
v 8.3 0.4 0.600001
v 8.3 1.5 8
v 8.3 1.5 0.600001
v 8.3 1.6 8.1
v 8.3 1.6 0.5
v -5.3 0 8.1
v -5.3 1.6 8.1
v -5.2 0.1 8.1
v -5.2 0.4 8.1
v -5.2 1.5 8.1
v -2.6 0.1 8.1
v -2.6 0.4 8.1
v -2.6 1.5 8.1
v -2.5 0 8.1
v -2.5 1.6 8.1
v 5.5 0 8.1
v 5.5 1.6 8.1
v 5.6 0.1 8.1
v 5.6 0.4 8.1
v 5.6 1.5 8.1
v 8.2 0.1 8.1
v 8.2 0.4 8.1
v 8.2 1.5 8.1
v 8.3 0 8.1
v 8.3 1.6 8.1
v -5.3 0 0.5
v -5.3 0.1 0.5
v -5.3 0.4 0.5
v -5.3 1.5 0.5
v -5.3 1.6 0.5
v -5.2 0 0.5
v -5.2 0.1 0.5
v -5.2 1.5 0.5
v -5.2 1.6 0.5
v -4.9 0.4 0.5
v -4.9 1.2 0.5
v -2.9 0.4 0.5
v -2.9 0.8 0.5
v -2.9 1.2 0.5
v -2.6 0 0.5
v -2.6 0.1 0.5
v -2.6 1.5 0.5
v -2.6 1.6 0.5
v -2.5 0 0.5
v -2.5 0.1 0.5
v -2.5 0.8 0.5
v -2.5 1.5 0.5
v -2.5 1.6 0.5
v 5.5 0 0.5
v 5.5 0.1 0.5
v 5.5 0.8 0.5
v 5.5 1.5 0.5
v 5.5 1.6 0.5
v 5.6 0 0.5
v 5.6 0.1 0.5
v 5.6 1.5 0.5
v 5.6 1.6 0.5
v 5.9 0.4 0.5
v 5.9 0.8 0.5
v 5.9 1.2 0.5
v 7.9 0.4 0.5
v 7.9 1.2 0.5
v 8.2 0 0.5
v 8.2 0.4 0.5
v 8.2 1.6 0.5
v 8.3 0 0.5
v 8.3 1.6 0.5
v -5.3 0 8.1
v -2.5 0 8.1
v 5.5 0 8.1
v 8.3 0 8.1
v -5.2 0 8
v -2.6 0 8
v 5.6 0 8
v 8.2 0 8
v -4.9 0 7.7
v -2.9 0 7.7
v 5.9 0 7.7
v 7.9 0 7.7
v -4.9 0 0.900001
v -2.9 0 0.900001
v 5.9 0 0.900001
v 7.9 0 0.900001
v -5.3 0 0.5
v -5.2 0 0.5
v -2.6 0 0.5
v -2.5 0 0.5
v 5.5 0 0.5
v 5.6 0 0.5
v 8.2 0 0.5
v 8.3 0 0.5
v -5.3 1.6 8.1
v -2.5 1.6 8.1
v 5.5 1.6 8.1
v 8.3 1.6 8.1
v -5.2 1.6 8
v -2.6 1.6 8
v 5.6 1.6 8
v 8.2 1.6 8
v -5.3 1.6 0.5
v -5.2 1.6 0.5
v -2.6 1.6 0.5
v -2.5 1.6 0.5
v 5.5 1.6 0.5
v 5.6 1.6 0.5
v 8.2 1.6 0.5
v 8.3 1.6 0.5

# faces
f 3/3/1 2/3/1 1/3/1
f 4/3/1 2/3/1 3/3/1
f 5/3/1 3/3/1 1/3/1
f 5/1/1 4/1/1 3/1/1
f 6/1/1 4/1/1 5/1/1
f 7/3/1 5/3/1 1/3/1
f 7/2/1 6/2/1 5/2/1
f 8/2/1 6/2/1 7/2/1
f 9/3/1 7/3/1 1/3/1
f 9/3/1 8/3/1 7/3/1
f 10/3/1 8/3/1 9/3/1
f 13/3/1 12/3/1 11/3/1
f 14/3/1 12/3/1 13/3/1
f 15/3/1 13/3/1 11/3/1
f 15/1/1 14/1/1 13/1/1
f 16/1/1 14/1/1 15/1/1
f 17/3/1 15/3/1 11/3/1
f 17/2/1 16/2/1 15/2/1
f 18/2/1 16/2/1 17/2/1
f 19/3/1 17/3/1 11/3/1
f 19/3/1 18/3/1 17/3/1
f 20/3/1 18/3/1 19/3/1
f 21/3/2 22/3/2 23/3/2
f 23/3/2 22/3/2 24/3/2
f 21/3/2 23/3/2 25/3/2
f 23/1/2 24/1/2 25/1/2
f 25/1/2 24/1/2 26/1/2
f 21/3/2 25/3/2 27/3/2
f 25/2/2 26/2/2 27/2/2
f 27/2/2 26/2/2 28/2/2
f 21/3/2 27/3/2 29/3/2
f 27/3/2 28/3/2 29/3/2
f 29/3/2 28/3/2 30/3/2
f 31/3/2 32/3/2 33/3/2
f 33/3/2 32/3/2 34/3/2
f 31/3/2 33/3/2 35/3/2
f 33/1/2 34/1/2 35/1/2
f 34/3/2 32/3/2 36/3/2
f 35/1/2 34/1/2 36/1/2
f 31/3/2 35/3/2 37/3/2
f 35/2/2 36/2/2 37/2/2
f 36/3/2 32/3/2 38/3/2
f 37/2/2 36/2/2 38/2/2
f 31/3/2 37/3/2 39/3/2
f 37/3/2 38/3/2 39/3/2
f 38/3/2 32/3/2 40/3/2
f 39/3/2 38/3/2 40/3/2
f 43/3/3 42/3/3 41/3/3
f 44/3/3 42/3/3 43/3/3
f 45/3/3 42/3/3 44/3/3
f 46/3/3 43/3/3 41/3/3
f 46/1/3 44/1/3 43/1/3
f 47/2/3 45/2/3 44/2/3
f 47/1/3 44/1/3 46/1/3
f 48/3/3 42/3/3 45/3/3
f 48/2/3 45/2/3 47/2/3
f 49/3/3 47/3/3 46/3/3
f 49/3/3 46/3/3 41/3/3
f 49/3/3 48/3/3 47/3/3
f 50/3/3 42/3/3 48/3/3
f 50/3/3 48/3/3 49/3/3
f 53/3/3 52/3/3 51/3/3
f 54/3/3 52/3/3 53/3/3
f 55/3/3 52/3/3 54/3/3
f 56/3/3 53/3/3 51/3/3
f 56/1/3 54/1/3 53/1/3
f 57/2/3 55/2/3 54/2/3
f 57/1/3 54/1/3 56/1/3
f 58/3/3 52/3/3 55/3/3
f 58/2/3 55/2/3 57/2/3
f 59/3/3 57/3/3 56/3/3
f 59/3/3 56/3/3 51/3/3
f 59/3/3 58/3/3 57/3/3
f 60/3/3 52/3/3 58/3/3
f 60/3/3 58/3/3 59/3/3
f 61/3/4 62/3/4 66/3/4
f 62/1/4 63/1/4 67/1/4
f 66/3/4 62/3/4 67/3/4
f 64/3/4 65/3/4 68/3/4
f 63/2/4 64/2/4 68/2/4
f 68/3/4 65/3/4 69/3/4
f 67/1/4 63/1/4 70/1/4
f 66/1/4 67/1/4 70/1/4
f 68/2/4 69/2/4 70/2/4
f 63/2/4 68/2/4 70/2/4
f 70/2/4 69/2/4 71/2/4
f 66/1/4 70/1/4 72/1/4
f 70/5/4 71/5/4 72/5/4
f 72/5/4 71/5/4 73/5/4
f 71/2/4 69/2/4 74/2/4
f 73/5/4 71/5/4 74/5/4
f 72/1/4 73/1/4 75/1/4
f 66/1/4 72/1/4 75/1/4
f 75/1/4 73/1/4 76/1/4
f 74/2/4 69/2/4 77/2/4
f 73/2/4 74/2/4 77/2/4
f 77/2/4 69/2/4 78/2/4
f 75/3/4 76/3/4 79/3/4
f 76/1/4 73/1/4 80/1/4
f 79/3/4 76/3/4 80/3/4
f 73/2/4 77/2/4 81/2/4
f 80/1/4 73/1/4 81/1/4
f 77/3/4 78/3/4 82/3/4
f 81/2/4 77/2/4 82/2/4
f 82/3/4 78/3/4 83/3/4
f 84/3/4 85/3/4 89/3/4
f 85/1/4 86/1/4 90/1/4
f 89/3/4 85/3/4 90/3/4
f 87/3/4 88/3/4 91/3/4
f 86/2/4 87/2/4 91/2/4
f 91/3/4 88/3/4 92/3/4
f 90/1/4 86/1/4 93/1/4
f 89/1/4 90/1/4 93/1/4
f 91/2/4 92/2/4 94/2/4
f 93/1/4 86/1/4 94/1/4
f 86/2/4 91/2/4 94/2/4
f 94/2/4 92/2/4 95/2/4
f 89/1/4 93/1/4 96/1/4
f 93/5/4 94/5/4 96/5/4
f 94/5/4 95/5/4 96/5/4
f 95/2/4 92/2/4 97/2/4
f 96/5/4 95/5/4 97/5/4
f 89/1/4 96/1/4 98/1/4
f 96/2/4 97/2/4 99/2/4
f 98/1/4 96/1/4 99/1/4
f 97/2/4 92/2/4 100/2/4
f 99/2/4 97/2/4 100/2/4
f 98/3/4 99/3/4 101/3/4
f 99/3/4 100/3/4 101/3/4
f 101/3/4 100/3/4 102/3/4
f 107/3/5 104/3/5 103/3/5
f 108/3/5 104/3/5 107/3/5
f 109/3/5 106/3/5 105/3/5
f 110/3/5 106/3/5 109/3/5
f 111/1/5 108/1/5 107/1/5
f 112/1/5 108/1/5 111/1/5
f 113/1/5 110/1/5 109/1/5
f 114/1/5 110/1/5 113/1/5
f 115/1/5 111/1/5 107/1/5
f 115/4/5 112/4/5 111/4/5
f 116/1/5 108/1/5 112/1/5
f 116/4/5 112/4/5 115/4/5
f 117/4/5 114/4/5 113/4/5
f 117/1/5 113/1/5 109/1/5
f 118/1/5 110/1/5 114/1/5
f 118/4/5 114/4/5 117/4/5
f 119/3/5 107/3/5 103/3/5
f 120/1/5 115/1/5 107/1/5
f 120/3/5 107/3/5 119/3/5
f 120/1/5 116/1/5 115/1/5
f 121/3/5 104/3/5 108/3/5
f 121/1/5 116/1/5 120/1/5
f 121/1/5 108/1/5 116/1/5
f 122/3/5 104/3/5 121/3/5
f 123/3/5 109/3/5 105/3/5
f 124/1/5 117/1/5 109/1/5
f 124/3/5 109/3/5 123/3/5
f 124/1/5 118/1/5 117/1/5
f 125/1/5 110/1/5 118/1/5
f 125/1/5 118/1/5 124/1/5
f 125/3/5 106/3/5 110/3/5
f 126/3/5 106/3/5 125/3/5
f 127/3/6 128/3/6 131/3/6
f 131/3/6 128/3/6 132/3/6
f 129/3/6 130/3/6 133/3/6
f 133/3/6 130/3/6 134/3/6
f 127/3/6 131/3/6 135/3/6
f 131/2/6 132/2/6 136/2/6
f 135/3/6 131/3/6 136/3/6
f 132/3/6 128/3/6 137/3/6
f 136/2/6 132/2/6 137/2/6
f 137/3/6 128/3/6 138/3/6
f 129/3/6 133/3/6 139/3/6
f 133/2/6 134/2/6 140/2/6
f 139/3/6 133/3/6 140/3/6
f 134/3/6 130/3/6 141/3/6
f 140/2/6 134/2/6 141/2/6
f 141/3/6 130/3/6 142/3/6
